<svg width="250" height="29" viewBox="0 0 250 29" fill="none" xmlns="http://www.w3.org/2000/svg">
<path d="M0 14.5792C0 6.56405 5.51067 0.475098 14.4102 0.475098C22.1957 0.475098 27.3577 4.67614 28.1656 11.4964H20.9584C20.3801 8.56677 17.8757 6.83617 14.4485 6.83617C10.2475 6.83617 7.24126 9.22584 7.24126 14.5792C7.24126 19.9325 10.2475 22.3647 14.4485 22.3647C17.8799 22.3647 20.3844 20.5916 20.9584 17.6619H28.1656C27.3577 24.5205 22.1915 28.7215 14.4102 28.7215C5.51067 28.7215 0 22.6326 0 14.5792Z" fill="#FC9E26"/>
<path d="M55.3321 1.01517L47.6656 17.7002H45.1229V28.1816H38.1495V17.7002H35.5685L28.0168 1.01517H35.492L41.6574 15.8889L47.8229 1.01517H55.3363H55.3321Z" fill="#FC9E26"/>
<path d="M57.6025 1.01517H69.3552C76.9452 1.01517 80.6827 2.32479 80.6827 7.56758C80.6827 12.1513 77.6382 13.4652 75.5972 13.8479C80.1427 14.2731 82.6854 16.6202 82.6854 20.8595C82.6854 27.2163 76.9452 28.1816 69.6231 28.1816H57.6025V1.01517ZM70.0483 11.3051C72.2041 11.3051 73.9007 11.4582 73.9007 8.99202C73.9007 6.52583 72.3614 6.64063 70.0483 6.64063H64.6525V11.3009H70.0483V11.3051ZM70.01 22.2117C73.5945 22.2117 75.5972 22.3265 75.5972 19.4776C75.5972 16.6287 73.4797 16.7818 70.01 16.7818H64.6525V22.2159H70.01V22.2117Z" fill="#FC9E26"/>
<path d="M98.7922 0.475098C107.615 0.475098 113.011 6.56405 113.011 14.5792C113.011 22.5943 107.615 28.7215 98.7922 28.7215C89.9692 28.7215 84.4968 22.6326 84.4968 14.5792C84.4968 6.52578 89.931 0.475098 98.7922 0.475098ZM98.7922 22.3604C103.495 22.3604 105.804 19.5073 105.804 14.5749C105.804 9.64254 103.453 6.83193 98.7922 6.83193C94.132 6.83193 91.7423 9.68506 91.7423 14.5749C91.7423 19.4648 94.0937 22.3604 98.7922 22.3604Z" fill="#FC9E26"/>
<path d="M137.133 1.01517V7.14237H128.387V28.1816H121.413V7.14237H112.667V1.01517H137.133Z" fill="#FC9E26"/>
<path d="M140.216 1.01517H152.198C158.364 1.01517 164.376 2.24826 164.376 8.2224C164.376 12.5765 161.485 14.4644 158.674 15.081H159.639C163.377 15.081 164.686 17.4324 164.686 19.9368V28.1816H157.713V18.9716H147.27V28.1816H140.22V1.01517H140.216ZM152.198 12.8827C155.319 12.8827 157.398 12.7678 157.398 10.0295C157.398 7.2912 155.162 7.13813 152.198 7.13813H147.266V12.8784H152.198V12.8827Z" fill="#FC9E26"/>
<path d="M175.316 1.01517H188.149L196.819 28.1816H189.382L186.84 19.9751H176.511L173.969 28.1816H166.608L175.316 1.01517ZM184.913 13.8479L181.678 3.48136L178.442 13.8479H184.913Z" fill="#FC9E26"/>
<path d="M198.55 1.01517H208.955C216.391 1.01517 224.096 2.90308 224.096 14.5792C224.096 26.2554 216.391 28.1816 208.955 28.1816H198.55V1.01517ZM208.955 22.0161C213.615 22.0161 217.085 21.863 217.085 14.5792C217.085 7.29545 213.577 7.14237 208.955 7.14237H205.561V22.0161H208.955Z" fill="#FC9E26"/>
<path d="M227.409 1.01509H249.026V7.14229H234.463V11.6877H247.1V17.4663H234.463V22.05H249.026V28.1772H227.409V1.01083V1.01509Z" fill="#FC9E26"/>
</svg>
