<svg width="56" height="46" viewBox="0 0 56 46" fill="none" xmlns="http://www.w3.org/2000/svg">
<path d="M19.9506 32.571C19.9697 35 17.9042 37.123 15.4943 37.1803C13.0462 37.2377 10.7894 34.9809 10.8468 32.5328C10.9042 30.1421 13.0462 28.0383 15.4561 28.0574C17.8468 28.0574 19.9315 30.1421 19.9506 32.571Z" fill="#FC9E26"/>
<path d="M40.1094 36.8743C37.7187 36.9126 35.6914 34.9617 35.6914 32.6284C35.6914 30.276 37.6996 28.3251 40.0712 28.3443C42.3854 28.3634 44.2788 30.1803 44.3745 32.4945C44.4701 34.7705 42.481 36.8361 40.1094 36.8743Z" fill="#FC9E26"/>
<path d="M35.5771 4.15027V13.1776" stroke="#FC8D26" stroke-width="8" stroke-miterlimit="10"/>
<path d="M19.8359 4.03552V16.1612" stroke="#FC8D26" stroke-width="8" stroke-miterlimit="10"/>
<path d="M4.0957 0V16.8306" stroke="#FC8D26" stroke-width="8" stroke-miterlimit="10"/>
<path d="M51.3164 0V16.8306" stroke="#FC8D26" stroke-width="8" stroke-miterlimit="10"/>
<path d="M51.222 25.9727V42H6.42969" stroke="#FC8D26" stroke-width="8" stroke-miterlimit="10"/>
<path d="M4 39.6093V23.5629H48.8306" stroke="#FC8D26" stroke-width="8" stroke-miterlimit="10"/>
</svg>
