<svg width="279" height="32" viewBox="0 0 279 32" fill="none" xmlns="http://www.w3.org/2000/svg">
<g clip-path="url(#clip0_167_998)">
<path d="M23.4319 19.7287V24.8187H8.10956V7.22072H23.4319V12.2713C23.4319 12.3502 23.4709 12.4291 23.4709 12.508H31.5415C30.6448 4.77435 24.8745 0 16.1411 0C6.16015 0 0 6.90506 0 15.9803C0 25.0949 6.16015 32 16.1411 32C24.8745 32 30.6448 27.2256 31.5415 19.4525H23.4709C23.4709 19.5709 23.4319 19.6498 23.4319 19.7287Z" fill="#FC9E26"/>
<path d="M53.5701 0.631348L46.6691 17.4797L39.7682 0.631348H31.3857L39.8462 19.5315H42.7313V31.4082H50.529V19.5315H53.3751L61.9525 0.631348H53.5701Z" fill="#FC9E26"/>
<path d="M84.6823 15.1517C86.9826 14.7177 90.3746 13.2183 90.3746 8.04935C90.3746 2.09127 86.2029 0.631348 77.7034 0.631348H64.5254V31.4476H77.9763C86.1639 31.4476 92.5969 30.3428 92.5969 23.1616C92.6359 18.3083 89.7898 15.6252 84.6823 15.1517ZM72.44 6.984H82.8109V12.2713H79.263C78.99 12.2713 78.7561 12.2713 78.4832 12.2713H72.44V6.984ZM84.6823 24.7399H72.44V18.4661H84.6823V24.7399Z" fill="#FC9E26"/>
<path d="M110.687 0C100.745 0 94.6631 6.90506 94.6631 15.9803C94.6631 25.0949 100.745 32 110.687 32C120.59 32 126.633 25.0949 126.633 15.9803C126.633 6.90506 120.59 0 110.687 0ZM118.524 24.8187H102.734V7.22072H118.524V24.8187Z" fill="#FC9E26"/>
<path d="M126.244 0.631348V7.57586H136.03V31.4476H143.828V7.5364H153.614V0.631348H126.244Z" fill="#FC9E26"/>
<path d="M178.84 16.5722H177.787C180.945 15.8619 184.181 13.7312 184.181 8.79904C184.181 2.01236 177.436 0.631348 170.535 0.631348H157.123V31.4476H165.038V20.9519H176.734V31.4082H184.532V22.0568C184.493 19.2158 183.05 16.5722 178.84 16.5722ZM176.344 14.0469H164.999V7.5364H176.344V14.0469Z" fill="#FC9E26"/>
<path d="M210.81 0.631348H196.423L186.676 31.4476H194.902L197.748 22.1357H209.328L212.174 31.4476H220.518L210.81 0.631348ZM199.932 15.1517L203.558 3.39337L207.184 15.1517H199.932Z" fill="#FC9E26"/>
<path d="M234.085 0.631348H222.428V31.4476H234.085C242.429 31.4476 251.045 29.3169 251.045 16.0198C251.084 2.76205 242.429 0.631348 234.085 0.631348ZM243.208 24.4242H230.303V7.49695H243.208V24.4242Z" fill="#FC9E26"/>
<path d="M279 7.5364V0.631348H254.788V31.4476H279V24.4637H262.703V19.2553H276.855V12.7053H262.703V7.5364H279Z" fill="#FC9E26"/>
</g>
<defs>
<clipPath id="clip0_167_998">
<rect width="279" height="32" fill="white"/>
</clipPath>
</defs>
</svg>
